ffmpeg started on 2025-09-30 at 20:04:57
Report written to "D:\Convert\FFMetrics\reports\ssim_report-6.txt"
Log level: 32
Command line:
ffmpeg -hide_banner -nostdin -i "F:\\\xc0\xed\xe8\xec\xe5\\\xce\xed\xe3\xee\xe8\xed\xe3\xe8\\!_37_\xc7\xe8\xec\xe0_2025\\JamClub\\\xc4\xee\xea\xf2\xee\xf0 \xd1\xf2\xee\xf3\xed\\\xd2\xc2-4\\JamClub_Dr_Stone_Science_Future_04_1080p_HEVC.mkv" -i "F:\\\xc0\xed\xe8\xec\xe5\\\xce\xed\xe3\xee\xe8\xed\xe3\xe8\\!_37_\xc7\xe8\xec\xe0_2025\\JamClub\\\xc4\xee\xea\xf2\xee\xf0 \xd1\xf2\xee\xf3\xed\\\xd2\xc2-4\\JamClub_Dr_Stone_Science_Future_04_1080p.mp4" -lavfi "[0:v]settb=AVTB,setpts=PTS-STARTPTS,format=pix_fmts=yuv420p10le,fps=24000/1001,scale=1920:1080:flags=bicubic:out_range=limited:out_chroma_loc=left,colorspace=format=yuv420p10:range=tv:primaries=bt709:trc=bt709:space=bt709:fast=0[main];[1:v]settb=AVTB,setpts=PTS-STARTPTS,format=pix_fmts=yuv420p,fps=24000/1001,scale=1920:1080:flags=bicubic:out_range=limited:out_chroma_loc=left,colorspace=format=yuv420p:irange=tv:iprimaries=bt709:itrc=bt709:ispace=bt709:range=tv:primaries=bt709:trc=bt709:space=bt709:fast=0[ref];[main][ref]ssim=eof_action=endall:stats_file='D\\:/Convert/FFMetrics/logs/ssim_logfile-6.txt'" -f null -
Input #0, matroska,webm, from 'F:\Аниме\Онгоинги\!_37_Зима_2025\JamClub\Доктор Стоун\ТВ-4\JamClub_Dr_Stone_Science_Future_04_1080p_HEVC.mkv':
  Metadata:
    COMPATIBLE_BRANDS: mp42mp41
    MAJOR_BRAND     : mp42
    MINOR_VERSION   : 0
    ENCODER         : Lavf61.7.100
  Duration: 00:24:22.12, start: -0.021000, bitrate: 1960 kb/s
  Stream #0:0(eng): Video: hevc (Main 10), yuv420p10le(tv, bt709, progressive), 1920x1080 [SAR 1:1 DAR 16:9], 23.98 fps, 23.98 tbr, 1k tbn (default)
      Metadata:
        HANDLER_NAME    : Mainconcept Video Media Handler
        VENDOR_ID       : [0][0][0][0]
        ENCODER         : Lavc61.19.100 libx265
        BPS             : 1762165
        DURATION        : 00:24:22.085708333
        NUMBER_OF_FRAMES: 35055
        NUMBER_OF_BYTES : 322054510
        _STATISTICS_WRITING_APP: mkvpropedit v94.0 ('Initiate') 64-bit
        _STATISTICS_WRITING_DATE_UTC: 2025-09-30 16:31:44
        _STATISTICS_TAGS: BPS DURATION NUMBER_OF_FRAMES NUMBER_OF_BYTES
  Stream #0:1(eng): Audio: aac (LC), 48000 Hz, stereo, fltp (default)
      Metadata:
        HANDLER_NAME    : #Mainconcept MP4 Sound Media Handler
        VENDOR_ID       : [0][0][0][0]
        ENCODER         : Lavc61.19.100 aac
        BPS             : 194304
        DURATION        : 00:24:22.101000000
        NUMBER_OF_FRAMES: 68537
        NUMBER_OF_BYTES : 35511542
        _STATISTICS_WRITING_APP: mkvpropedit v94.0 ('Initiate') 64-bit
        _STATISTICS_WRITING_DATE_UTC: 2025-09-30 16:31:44
        _STATISTICS_TAGS: BPS DURATION NUMBER_OF_FRAMES NUMBER_OF_BYTES
Input #1, mov,mp4,m4a,3gp,3g2,mj2, from 'F:\Аниме\Онгоинги\!_37_Зима_2025\JamClub\Доктор Стоун\ТВ-4\JamClub_Dr_Stone_Science_Future_04_1080p.mp4':
  Metadata:
    major_brand     : mp42
    minor_version   : 0
    compatible_brands: mp42mp41
    creation_time   : 2025-02-16T13:51:32.000000Z
  Duration: 00:24:22.09, start: 0.000000, bitrate: 5323 kb/s
  Stream #1:0[0x1](eng): Video: h264 (Main) (avc1 / 0x31637661), yuv420p(progressive), 1920x1080 [SAR 1:1 DAR 16:9], 5003 kb/s, 23.98 fps, 23.98 tbr, 24k tbn (default)
      Metadata:
        creation_time   : 2025-02-16T13:51:32.000000Z
        handler_name    : Mainconcept Video Media Handler
        vendor_id       : [0][0][0][0]
        encoder         : AVC Coding
  Stream #1:1[0x2](eng): Audio: aac (LC) (mp4a / 0x6134706D), 48000 Hz, stereo, fltp, 317 kb/s (default)
      Metadata:
        creation_time   : 2025-02-16T13:51:32.000000Z
        handler_name    : #Mainconcept MP4 Sound Media Handler
        vendor_id       : [0][0][0][0]
Stream mapping:
  Stream #0:0 (hevc) -> settb:default
  Stream #1:0 (h264) -> settb:default
  ssim:default -> Stream #0:0 (wrapped_avframe)
  Stream #0:1 -> #0:1 (aac (native) -> pcm_s16le (native))
Output #0, null, to 'pipe:':
  Metadata:
    COMPATIBLE_BRANDS: mp42mp41
    MAJOR_BRAND     : mp42
    MINOR_VERSION   : 0
    encoder         : Lavf61.7.100
  Stream #0:0: Video: wrapped_avframe, yuv420p10le(tv, bt709, progressive), 1920x1080 [SAR 1:1 DAR 16:9], q=2-31, 200 kb/s, 23.98 fps, 23.98 tbn
      Metadata:
        encoder         : Lavc61.19.100 wrapped_avframe
  Stream #0:1(eng): Audio: pcm_s16le, 48000 Hz, stereo, s16, 1536 kb/s (default)
      Metadata:
        HANDLER_NAME    : #Mainconcept MP4 Sound Media Handler
        VENDOR_ID       : [0][0][0][0]
        _STATISTICS_TAGS: BPS DURATION NUMBER_OF_FRAMES NUMBER_OF_BYTES
        BPS             : 194304
        DURATION        : 00:24:22.101000000
        NUMBER_OF_FRAMES: 68537
        NUMBER_OF_BYTES : 35511542
        _STATISTICS_WRITING_APP: mkvpropedit v94.0 ('Initiate') 64-bit
        _STATISTICS_WRITING_DATE_UTC: 2025-09-30 16:31:44
        encoder         : Lavc61.19.100 pcm_s16le
frame=  103 fps=0.0 q=-0.0 size=N/A time=00:00:04.29 bitrate=N/A speed=8.35x    frame=  244 fps=238 q=-0.0 size=N/A time=00:00:10.17 bitrate=N/A speed=9.91x    frame=  417 fps=269 q=-0.0 size=N/A time=00:00:17.39 bitrate=N/A speed=11.2x    frame=  602 fps=292 q=-0.0 size=N/A time=00:00:25.10 bitrate=N/A speed=12.2x    frame=  786 fps=305 q=-0.0 size=N/A time=00:00:32.78 bitrate=N/A speed=12.7x    frame=  936 fps=303 q=-0.0 size=N/A time=00:00:39.03 bitrate=N/A speed=12.6x    frame= 1120 fps=311 q=-0.0 size=N/A time=00:00:46.71 bitrate=N/A speed=  13x    frame= 1301 fps=315 q=-0.0 size=N/A time=00:00:54.26 bitrate=N/A speed=13.1x    frame= 1481 fps=319 q=-0.0 size=N/A time=00:01:01.77 bitrate=N/A speed=13.3x    frame= 1659 fps=322 q=-0.0 size=N/A time=00:01:09.19 bitrate=N/A speed=13.4x    frame= 1846 fps=325 q=-0.0 size=N/A time=00:01:16.99 bitrate=N/A speed=13.6x    frame= 2027 fps=327 q=-0.0 size=N/A time=00:01:24.54 bitrate=N/A speed=13.6x    frame= 2183 fps=325 q=-0.0 size=N/A time=00:01:31.04 bitrate=N/A speed=13.6x    frame= 2365 fps=327 q=-0.0 size=N/A time=00:01:38.64 bitrate=N/A speed=13.7x    frame= 2543 fps=328 q=-0.0 size=N/A time=00:01:46.06 bitrate=N/A speed=13.7x    frame= 2702 fps=327 q=-0.0 size=N/A time=00:01:52.69 bitrate=N/A speed=13.6x    frame= 2862 fps=326 q=-0.0 size=N/A time=00:01:59.36 bitrate=N/A speed=13.6x    frame= 3025 fps=326 q=-0.0 size=N/A time=00:02:06.16 bitrate=N/A speed=13.6x    frame= 3204 fps=326 q=-0.0 size=N/A time=00:02:13.63 bitrate=N/A speed=13.6x    frame= 3384 fps=327 q=-0.0 size=N/A time=00:02:21.14 bitrate=N/A speed=13.6x    frame= 3557 fps=328 q=-0.0 size=N/A time=00:02:28.35 bitrate=N/A speed=13.7x    frame= 3743 fps=329 q=-0.0 size=N/A time=00:02:36.11 bitrate=N/A speed=13.7x    frame= 3906 fps=328 q=-0.0 size=N/A time=00:02:42.91 bitrate=N/A speed=13.7x    frame= 4070 fps=328 q=-0.0 size=N/A time=00:02:49.75 bitrate=N/A speed=13.7x    frame= 4215 fps=326 q=-0.0 size=N/A time=00:02:55.80 bitrate=N/A speed=13.6x    frame= 4350 fps=324 q=-0.0 size=N/A time=00:03:01.43 bitrate=N/A speed=13.5x    frame= 4497 fps=322 q=-0.0 size=N/A time=00:03:07.56 bitrate=N/A speed=13.4x    frame= 4652 fps=321 q=-0.0 size=N/A time=00:03:14.02 bitrate=N/A speed=13.4x    frame= 4792 fps=320 q=-0.0 size=N/A time=00:03:19.86 bitrate=N/A speed=13.3x    frame= 4956 fps=320 q=-0.0 size=N/A time=00:03:26.70 bitrate=N/A speed=13.3x    frame= 5079 fps=317 q=-0.0 size=N/A time=00:03:31.83 bitrate=N/A speed=13.2x    frame= 5220 fps=316 q=-0.0 size=N/A time=00:03:37.71 bitrate=N/A speed=13.2x    frame= 5365 fps=315 q=-0.0 size=N/A time=00:03:43.76 bitrate=N/A speed=13.1x    frame= 5494 fps=313 q=-0.0 size=N/A time=00:03:49.14 bitrate=N/A speed=13.1x    frame= 5635 fps=312 q=-0.0 size=N/A time=00:03:55.02 bitrate=N/A speed=  13x    frame= 5824 fps=313 q=-0.0 size=N/A time=00:04:02.90 bitrate=N/A speed=13.1x    frame= 5957 fps=312 q=-0.0 size=N/A time=00:04:08.45 bitrate=N/A speed=  13x    frame= 6123 fps=312 q=-0.0 size=N/A time=00:04:15.38 bitrate=N/A speed=  13x    frame= 6314 fps=314 q=-0.0 size=N/A time=00:04:23.34 bitrate=N/A speed=13.1x    frame= 6487 fps=314 q=-0.0 size=N/A time=00:04:30.56 bitrate=N/A speed=13.1x    frame= 6653 fps=314 q=-0.0 size=N/A time=00:04:37.48 bitrate=N/A speed=13.1x    frame= 6814 fps=314 q=-0.0 size=N/A time=00:04:44.20 bitrate=N/A speed=13.1x    frame= 6986 fps=315 q=-0.0 size=N/A time=00:04:51.37 bitrate=N/A speed=13.1x    frame= 7164 fps=315 q=-0.0 size=N/A time=00:04:58.79 bitrate=N/A speed=13.2x    frame= 7321 fps=315 q=-0.0 size=N/A time=00:05:05.34 bitrate=N/A speed=13.1x    frame= 7498 fps=316 q=-0.0 size=N/A time=00:05:12.72 bitrate=N/A speed=13.2x    frame= 7698 fps=317 q=-0.0 size=N/A time=00:05:21.07 bitrate=N/A speed=13.2x    frame= 7885 fps=318 q=-0.0 size=N/A time=00:05:28.87 bitrate=N/A speed=13.3x    frame= 8062 fps=319 q=-0.0 size=N/A time=00:05:36.25 bitrate=N/A speed=13.3x    frame= 8232 fps=319 q=-0.0 size=N/A time=00:05:43.34 bitrate=N/A speed=13.3x    frame= 8406 fps=319 q=-0.0 size=N/A time=00:05:50.60 bitrate=N/A speed=13.3x    frame= 8579 fps=320 q=-0.0 size=N/A time=00:05:57.81 bitrate=N/A speed=13.3x    frame= 8750 fps=320 q=-0.0 size=N/A time=00:06:04.94 bitrate=N/A speed=13.3x    frame= 8906 fps=320 q=-0.0 size=N/A time=00:06:11.45 bitrate=N/A speed=13.3x    frame= 9081 fps=320 q=-0.0 size=N/A time=00:06:18.75 bitrate=N/A speed=13.3x    frame= 9241 fps=320 q=-0.0 size=N/A time=00:06:25.42 bitrate=N/A speed=13.3x    frame= 9417 fps=320 q=-0.0 size=N/A time=00:06:32.76 bitrate=N/A speed=13.3x    frame= 9603 fps=321 q=-0.0 size=N/A time=00:06:40.52 bitrate=N/A speed=13.4x    frame= 9800 fps=322 q=-0.0 size=N/A time=00:06:48.74 bitrate=N/A speed=13.4x    frame= 9957 fps=321 q=-0.0 size=N/A time=00:06:55.28 bitrate=N/A speed=13.4x    frame=10114 fps=321 q=-0.0 size=N/A time=00:07:01.83 bitrate=N/A speed=13.4x    frame=10297 fps=322 q=-0.0 size=N/A time=00:07:09.47 bitrate=N/A speed=13.4x    frame=10478 fps=322 q=-0.0 size=N/A time=00:07:17.01 bitrate=N/A speed=13.4x    frame=10664 fps=323 q=-0.0 size=N/A time=00:07:24.77 bitrate=N/A speed=13.5x    frame=10846 fps=323 q=-0.0 size=N/A time=00:07:32.36 bitrate=N/A speed=13.5x    frame=11012 fps=323 q=-0.0 size=N/A time=00:07:39.29 bitrate=N/A speed=13.5x    frame=11208 fps=324 q=-0.0 size=N/A time=00:07:47.46 bitrate=N/A speed=13.5x    frame=11366 fps=324 q=-0.0 size=N/A time=00:07:54.05 bitrate=N/A speed=13.5x    frame=11534 fps=324 q=-0.0 size=N/A time=00:08:01.06 bitrate=N/A speed=13.5x    frame=11705 fps=324 q=-0.0 size=N/A time=00:08:08.19 bitrate=N/A speed=13.5x    frame=11877 fps=324 q=-0.0 size=N/A time=00:08:15.36 bitrate=N/A speed=13.5x    frame=12041 fps=324 q=-0.0 size=N/A time=00:08:22.21 bitrate=N/A speed=13.5x    frame=12206 fps=324 q=-0.0 size=N/A time=00:08:29.09 bitrate=N/A speed=13.5x    frame=12394 fps=324 q=-0.0 size=N/A time=00:08:36.93 bitrate=N/A speed=13.5x    frame=12578 fps=325 q=-0.0 size=N/A time=00:08:44.60 bitrate=N/A speed=13.5x    frame=12767 fps=325 q=-0.0 size=N/A time=00:08:52.49 bitrate=N/A speed=13.6x    frame=12947 fps=326 q=-0.0 size=N/A time=00:08:59.99 bitrate=N/A speed=13.6x    frame=13138 fps=326 q=-0.0 size=N/A time=00:09:07.96 bitrate=N/A speed=13.6x    frame=13325 fps=327 q=-0.0 size=N/A time=00:09:15.76 bitrate=N/A speed=13.6x    frame=13515 fps=327 q=-0.0 size=N/A time=00:09:23.68 bitrate=N/A speed=13.6x    frame=13686 fps=327 q=-0.0 size=N/A time=00:09:30.82 bitrate=N/A speed=13.7x    frame=13864 fps=328 q=-0.0 size=N/A time=00:09:38.24 bitrate=N/A speed=13.7x    frame=14042 fps=328 q=-0.0 size=N/A time=00:09:45.66 bitrate=N/A speed=13.7x    frame=14234 fps=328 q=-0.0 size=N/A time=00:09:53.67 bitrate=N/A speed=13.7x    frame=14400 fps=328 q=-0.0 size=N/A time=00:10:00.60 bitrate=N/A speed=13.7x    frame=14576 fps=328 q=-0.0 size=N/A time=00:10:07.94 bitrate=N/A speed=13.7x    frame=14748 fps=328 q=-0.0 size=N/A time=00:10:15.11 bitrate=N/A speed=13.7x    frame=14930 fps=329 q=-0.0 size=N/A time=00:10:22.70 bitrate=N/A speed=13.7x    frame=15104 fps=329 q=-0.0 size=N/A time=00:10:29.96 bitrate=N/A speed=13.7x    frame=15280 fps=329 q=-0.0 size=N/A time=00:10:37.30 bitrate=N/A speed=13.7x    frame=15460 fps=329 q=-0.0 size=N/A time=00:10:44.81 bitrate=N/A speed=13.7x    frame=15655 fps=330 q=-0.0 size=N/A time=00:10:52.94 bitrate=N/A speed=13.7x    frame=15846 fps=330 q=-0.0 size=N/A time=00:11:00.91 bitrate=N/A speed=13.8x    frame=16016 fps=330 q=-0.0 size=N/A time=00:11:08.00 bitrate=N/A speed=13.8x    frame=16201 fps=330 q=-0.0 size=N/A time=00:11:15.71 bitrate=N/A speed=13.8x    frame=16384 fps=331 q=-0.0 size=N/A time=00:11:23.34 bitrate=N/A speed=13.8x    frame=16526 fps=330 q=-0.0 size=N/A time=00:11:29.27 bitrate=N/A speed=13.8x    frame=16710 fps=330 q=-0.0 size=N/A time=00:11:36.94 bitrate=N/A speed=13.8x    frame=16891 fps=331 q=-0.0 size=N/A time=00:11:44.49 bitrate=N/A speed=13.8x    frame=17081 fps=331 q=-0.0 size=N/A time=00:11:52.42 bitrate=N/A speed=13.8x    frame=17266 fps=331 q=-0.0 size=N/A time=00:12:00.13 bitrate=N/A speed=13.8x    frame=17445 fps=331 q=-0.0 size=N/A time=00:12:07.60 bitrate=N/A speed=13.8x    frame=17626 fps=332 q=-0.0 size=N/A time=00:12:15.15 bitrate=N/A speed=13.8x    frame=17816 fps=332 q=-0.0 size=N/A time=00:12:23.07 bitrate=N/A speed=13.8x    frame=18001 fps=332 q=-0.0 size=N/A time=00:12:30.79 bitrate=N/A speed=13.9x    frame=18164 fps=332 q=-0.0 size=N/A time=00:12:37.59 bitrate=N/A speed=13.8x    frame=18355 fps=332 q=-0.0 size=N/A time=00:12:45.55 bitrate=N/A speed=13.9x    frame=18539 fps=333 q=-0.0 size=N/A time=00:12:53.23 bitrate=N/A speed=13.9x    frame=18705 fps=332 q=-0.0 size=N/A time=00:13:00.15 bitrate=N/A speed=13.9x    frame=18887 fps=333 q=-0.0 size=N/A time=00:13:07.74 bitrate=N/A speed=13.9x    frame=19062 fps=333 q=-0.0 size=N/A time=00:13:15.04 bitrate=N/A speed=13.9x    frame=19233 fps=333 q=-0.0 size=N/A time=00:13:22.17 bitrate=N/A speed=13.9x    frame=19376 fps=332 q=-0.0 size=N/A time=00:13:28.14 bitrate=N/A speed=13.9x    frame=19530 fps=332 q=-0.0 size=N/A time=00:13:34.56 bitrate=N/A speed=13.8x    frame=19720 fps=332 q=-0.0 size=N/A time=00:13:42.48 bitrate=N/A speed=13.9x    frame=19887 fps=332 q=-0.0 size=N/A time=00:13:49.45 bitrate=N/A speed=13.9x    frame=20079 fps=332 q=-0.0 size=N/A time=00:13:57.46 bitrate=N/A speed=13.9x    frame=20269 fps=333 q=-0.0 size=N/A time=00:14:05.38 bitrate=N/A speed=13.9x    frame=20462 fps=333 q=-0.0 size=N/A time=00:14:13.43 bitrate=N/A speed=13.9x    frame=20651 fps=333 q=-0.0 size=N/A time=00:14:21.31 bitrate=N/A speed=13.9x    frame=20825 fps=333 q=-0.0 size=N/A time=00:14:28.57 bitrate=N/A speed=13.9x    frame=20998 fps=333 q=-0.0 size=N/A time=00:14:35.79 bitrate=N/A speed=13.9x    frame=21189 fps=334 q=-0.0 size=N/A time=00:14:43.75 bitrate=N/A speed=13.9x    frame=21367 fps=334 q=-0.0 size=N/A time=00:14:51.18 bitrate=N/A speed=13.9x    frame=21556 fps=334 q=-0.0 size=N/A time=00:14:59.06 bitrate=N/A speed=13.9x    frame=21733 fps=334 q=-0.0 size=N/A time=00:15:06.44 bitrate=N/A speed=13.9x    frame=21910 fps=334 q=-0.0 size=N/A time=00:15:13.82 bitrate=N/A speed=13.9x    frame=22082 fps=334 q=-0.0 size=N/A time=00:15:21.00 bitrate=N/A speed=13.9x    frame=22266 fps=334 q=-0.0 size=N/A time=00:15:28.67 bitrate=N/A speed=13.9x    frame=22455 fps=335 q=-0.0 size=N/A time=00:15:36.56 bitrate=N/A speed=  14x    frame=22638 fps=335 q=-0.0 size=N/A time=00:15:44.19 bitrate=N/A speed=  14x    frame=22833 fps=335 q=-0.0 size=N/A time=00:15:52.32 bitrate=N/A speed=  14x    frame=23025 fps=335 q=-0.0 size=N/A time=00:16:00.33 bitrate=N/A speed=  14x    frame=23188 fps=335 q=-0.0 size=N/A time=00:16:07.13 bitrate=N/A speed=  14x    frame=23375 fps=335 q=-0.0 size=N/A time=00:16:14.93 bitrate=N/A speed=  14x    frame=23547 fps=335 q=-0.0 size=N/A time=00:16:22.10 bitrate=N/A speed=  14x    frame=23728 fps=336 q=-0.0 size=N/A time=00:16:29.65 bitrate=N/A speed=  14x    frame=23901 fps=336 q=-0.0 size=N/A time=00:16:36.87 bitrate=N/A speed=  14x    frame=24099 fps=336 q=-0.0 size=N/A time=00:16:45.12 bitrate=N/A speed=  14x    frame=24276 fps=336 q=-0.0 size=N/A time=00:16:52.51 bitrate=N/A speed=  14x    frame=24463 fps=336 q=-0.0 size=N/A time=00:17:00.31 bitrate=N/A speed=  14x    frame=24652 fps=336 q=-0.0 size=N/A time=00:17:08.19 bitrate=N/A speed=  14x    frame=24833 fps=336 q=-0.0 size=N/A time=00:17:15.74 bitrate=N/A speed=  14x    frame=25005 fps=336 q=-0.0 size=N/A time=00:17:22.91 bitrate=N/A speed=  14x    frame=25181 fps=336 q=-0.0 size=N/A time=00:17:30.25 bitrate=N/A speed=  14x    frame=25352 fps=336 q=-0.0 size=N/A time=00:17:37.38 bitrate=N/A speed=  14x    frame=25517 fps=336 q=-0.0 size=N/A time=00:17:44.27 bitrate=N/A speed=  14x    frame=25704 fps=336 q=-0.0 size=N/A time=00:17:52.07 bitrate=N/A speed=  14x    frame=25874 fps=336 q=-0.0 size=N/A time=00:17:59.16 bitrate=N/A speed=  14x    frame=26053 fps=337 q=-0.0 size=N/A time=00:18:06.62 bitrate=N/A speed=  14x    frame=26203 fps=336 q=-0.0 size=N/A time=00:18:12.88 bitrate=N/A speed=  14x    frame=26384 fps=336 q=-0.0 size=N/A time=00:18:20.43 bitrate=N/A speed=  14x    frame=26565 fps=336 q=-0.0 size=N/A time=00:18:27.98 bitrate=N/A speed=  14x    frame=26755 fps=337 q=-0.0 size=N/A time=00:18:35.90 bitrate=N/A speed=  14x    frame=26943 fps=337 q=-0.0 size=N/A time=00:18:43.74 bitrate=N/A speed=  14x    frame=27138 fps=337 q=-0.0 size=N/A time=00:18:51.88 bitrate=N/A speed=14.1x    frame=27328 fps=337 q=-0.0 size=N/A time=00:18:59.80 bitrate=N/A speed=14.1x    frame=27522 fps=337 q=-0.0 size=N/A time=00:19:07.89 bitrate=N/A speed=14.1x    frame=27714 fps=338 q=-0.0 size=N/A time=00:19:15.90 bitrate=N/A speed=14.1x    frame=27900 fps=338 q=-0.0 size=N/A time=00:19:23.66 bitrate=N/A speed=14.1x    frame=28081 fps=338 q=-0.0 size=N/A time=00:19:31.21 bitrate=N/A speed=14.1x    frame=28269 fps=338 q=-0.0 size=N/A time=00:19:39.05 bitrate=N/A speed=14.1x    frame=28457 fps=338 q=-0.0 size=N/A time=00:19:46.89 bitrate=N/A speed=14.1x    frame=28653 fps=338 q=-0.0 size=N/A time=00:19:55.06 bitrate=N/A speed=14.1x    frame=28843 fps=339 q=-0.0 size=N/A time=00:20:02.99 bitrate=N/A speed=14.1x    frame=29028 fps=339 q=-0.0 size=N/A time=00:20:10.70 bitrate=N/A speed=14.1x    frame=29211 fps=339 q=-0.0 size=N/A time=00:20:18.34 bitrate=N/A speed=14.1x    frame=29406 fps=339 q=-0.0 size=N/A time=00:20:26.47 bitrate=N/A speed=14.1x    frame=29591 fps=339 q=-0.0 size=N/A time=00:20:34.19 bitrate=N/A speed=14.1x    frame=29781 fps=339 q=-0.0 size=N/A time=00:20:42.11 bitrate=N/A speed=14.2x    frame=29966 fps=340 q=-0.0 size=N/A time=00:20:49.83 bitrate=N/A speed=14.2x    frame=30159 fps=340 q=-0.0 size=N/A time=00:20:57.88 bitrate=N/A speed=14.2x    frame=30349 fps=340 q=-0.0 size=N/A time=00:21:05.80 bitrate=N/A speed=14.2x    frame=30545 fps=340 q=-0.0 size=N/A time=00:21:13.98 bitrate=N/A speed=14.2x    frame=30742 fps=340 q=-0.0 size=N/A time=00:21:22.19 bitrate=N/A speed=14.2x    frame=30929 fps=340 q=-0.0 size=N/A time=00:21:29.99 bitrate=N/A speed=14.2x    frame=31127 fps=341 q=-0.0 size=N/A time=00:21:38.25 bitrate=N/A speed=14.2x    frame=31306 fps=341 q=-0.0 size=N/A time=00:21:45.72 bitrate=N/A speed=14.2x    frame=31460 fps=340 q=-0.0 size=N/A time=00:21:52.14 bitrate=N/A speed=14.2x    frame=31649 fps=341 q=-0.0 size=N/A time=00:22:00.02 bitrate=N/A speed=14.2x    frame=31841 fps=341 q=-0.0 size=N/A time=00:22:08.03 bitrate=N/A speed=14.2x    frame=32033 fps=341 q=-0.0 size=N/A time=00:22:16.04 bitrate=N/A speed=14.2x    frame=32224 fps=341 q=-0.0 size=N/A time=00:22:24.00 bitrate=N/A speed=14.2x    frame=32412 fps=341 q=-0.0 size=N/A time=00:22:31.85 bitrate=N/A speed=14.2x    frame=32607 fps=341 q=-0.0 size=N/A time=00:22:39.98 bitrate=N/A speed=14.2x    frame=32791 fps=341 q=-0.0 size=N/A time=00:22:47.65 bitrate=N/A speed=14.2x    frame=32977 fps=342 q=-0.0 size=N/A time=00:22:55.41 bitrate=N/A speed=14.2x    frame=33164 fps=342 q=-0.0 size=N/A time=00:23:03.21 bitrate=N/A speed=14.2x    frame=33339 fps=342 q=-0.0 size=N/A time=00:23:10.51 bitrate=N/A speed=14.2x    frame=33515 fps=342 q=-0.0 size=N/A time=00:23:17.85 bitrate=N/A speed=14.2x    frame=33704 fps=342 q=-0.0 size=N/A time=00:23:25.73 bitrate=N/A speed=14.3x    frame=33896 fps=342 q=-0.0 size=N/A time=00:23:33.74 bitrate=N/A speed=14.3x    frame=34089 fps=342 q=-0.0 size=N/A time=00:23:41.79 bitrate=N/A speed=14.3x    frame=34276 fps=342 q=-0.0 size=N/A time=00:23:49.59 bitrate=N/A speed=14.3x    frame=34427 fps=342 q=-0.0 size=N/A time=00:23:55.89 bitrate=N/A speed=14.3x    frame=34567 fps=342 q=-0.0 size=N/A time=00:24:01.73 bitrate=N/A speed=14.2x    frame=34751 fps=342 q=-0.0 size=N/A time=00:24:09.40 bitrate=N/A speed=14.2x    frame=34925 fps=342 q=-0.0 size=N/A time=00:24:16.66 bitrate=N/A speed=14.2x    [Parsed_ssim_12 @ 000001fc459c9a00] SSIM Y:0.993652 (21.973763) U:0.993596 (21.935414) V:0.993946 (22.179358) All:0.993692 (22.000895)
[out#0/null @ 000001fc2f0633c0] video:15063KiB audio:274148KiB subtitle:0KiB other streams:0KiB global headers:0KiB muxing overhead: unknown
frame=35055 fps=342 q=-0.0 Lsize=N/A time=00:24:22.08 bitrate=N/A speed=14.3x    
